<?xml version="1.0" encoding="UTF-8" standalone="no"?>
<!-- Created with Inkscape (http://www.inkscape.org/) -->

<svg
   version="1.1"
   id="svg1"
   width="879.36005"
   height="860.79999"
   viewBox="0 0 879.36005 860.79999"
   xmlns="http://www.w3.org/2000/svg"
   xmlns:svg="http://www.w3.org/2000/svg">
  <defs
     id="defs1" />
  <g
     id="g1"
     transform="translate(-43.749592,-42.552864)">
    <g
       id="g2"
       transform="translate(1.1895925,-8.3271371)">
      <path
         style="fill:#fefefe"
         d="M 100.36983,799.26464 C 82.15478,761.72372 63.880082,724.21148 45.76,686.62464 69.720218,686.2363 93.68685,686.459 117.64998,686.4 c 23.81637,47.83958 47.4017,95.79539 71.49405,143.49663 22.26288,-48.40096 44.22375,-96.94033 66.32207,-145.41663 23.53774,0.0622 47.07938,-0.17005 70.6139,0.23553 -34.26053,75.71022 -68.75854,151.31288 -103.14842,226.96447 -22.65064,0 -45.30129,0 -67.95193,0 C 136.77638,874.20821 118.5731,836.73643 100.36983,799.26464 Z M 637.44,881.64048 c 0.1297,-15.36408 -4.48104,-33.34674 14.58299,-38.25172 C 700.7107,812.76584 749.3984,782.14292 798.08611,751.52 744.53741,751.4662 690.9887,751.41249 637.44,751.35875 c 0,-22.07958 0,-44.15917 0,-66.23875 94.82667,0 189.65333,0 284.48,0 0,22.59052 0,45.18105 0,67.77157 -49.06656,31.54281 -98.13311,63.08562 -147.19967,94.62843 49.06656,0.0538 98.13311,0.1076 147.19967,0.1614 0,21.01287 0,42.02573 0,63.0386 -94.82667,0 -189.65333,0 -284.48,0 0,-9.69317 0,-19.38635 0,-29.07952 z m -304,27.26723 c 37.99156,-73.2714 76.21542,-146.42214 114.33366,-219.62771 26.59754,0 53.19509,0 79.79263,0 28.8458,73.19729 57.79398,146.35437 86.5168,219.6 -23.6436,0.41515 -47.29464,0.17679 -70.94161,0.24 -9.5367,-20.20925 -18.95385,-40.47563 -28.63116,-60.618 -25.95828,-0.14514 -51.91628,0.58652 -77.87348,0.89534 -8.94067,19.90755 -17.88133,39.81511 -26.822,59.72266 -25.45797,-0.0551 -50.91941,0.15236 -76.37484,-0.21229 z M 490.50667,788.22206 c -3.93358,-30.08137 -23.35393,-14.99552 -18.22984,0.22173 6.07262,-0.0649 12.16657,0.26306 18.22984,-0.22173 z M 703.04,596.16507 c -54.13544,-0.70274 -58.76031,-61.4594 -54.24013,-102.39423 3.82227,-36.91452 -13.98037,-87.78663 26.65735,-109.72391 43.91162,-24.5844 96.02072,-10.71762 143.92932,-14.28012 37.41625,-3.68623 90.21056,1.75227 98.2591,47.3407 0.67464,47.37084 2.28461,95.17014 -0.87908,142.3556 -10.61562,33.86689 -49.09892,39.26448 -79.48083,36.51744 -44.74861,0.004 -89.4986,0.007 -134.24573,0.18452 z m 119.68,-65.18299 c 32.59632,-9.36478 15.87782,-49.09826 19.37181,-74.53376 -11.83695,-36.9588 -62.84591,-18.09904 -92.03671,-21.6635 -39.95624,5.26053 -36.08145,78.83086 -10.37519,95.85536 27.57445,1.33584 55.44383,1.37987 83.04009,0.3419 z M 346.29805,487.76 c -0.44406,-37.89322 -1.05891,-75.78564 -1.33806,-113.68 22.50667,0 45.01333,0 67.52,0 0,24.74667 0,49.49333 0,74.24 46.61333,0 93.22667,0 139.84,0 0,-24.74667 0,-49.49333 0,-74.24 20.05333,0 40.10667,0 60.16,0 0,73.49333 0,146.98667 0,220.48 -19.4714,0 -38.9428,0 -58.4142,0 -1.27142,-25.38667 -2.54285,-50.77333 -3.81429,-76.16 -45.85214,0 -91.70427,0 -137.55641,0 0.28093,25.38669 0.56416,50.77336 0.8498,76.16 -21.95872,0 -43.91745,0 -65.87617,0 -0.45689,-35.6 -0.91378,-71.2 -1.37067,-106.8 z M 45.818521,487.15929 C 45.374331,449.14631 44.759342,411.13412 44.480004,373.12 c 21.400619,1.11501 44.51311,-2.21418 64.854366,1.65103 43.82188,39.64155 87.64376,79.2831 131.46563,118.92466 -0.35243,-38.76431 -2.16433,-77.51754 -2.72005,-116.2833 22.77668,-0.36392 45.55173,-0.91951 68.33047,-1.09238 0.9,72.63995 1.99643,145.27857 2.70951,217.92 -23.02678,0 -46.05356,0 -69.08034,0 -42.20493,-42.67511 -83.29239,-86.77602 -126.39297,-128.32524 0.6391,42.60031 1.89486,85.18964 2.50622,127.79035 -22.98503,0.40417 -45.975396,0.41915 -68.963072,0.61348 -0.457082,-35.71977 -0.914165,-71.43954 -1.371247,-107.15931 z M 343.41805,164.88 C 342.97399,126.98678 342.35912,89.094361 342.08,51.2 c 22.50667,0 45.01333,0 67.52,0 0,24.746667 0,49.49333 0,74.24 46.61333,0 93.22667,0 139.84,0 0,-24.74667 0,-49.493333 0,-74.24 20.05333,0 40.10667,0 60.16,0 0,73.49333 0,146.98667 0,220.48 -19.4714,0 -38.9428,0 -58.4142,0 -1.27142,-25.38667 -2.54285,-50.77333 -3.81429,-76.16 -45.85214,0 -91.70428,0 -137.55642,0 0.28093,25.38669 0.56416,50.77336 0.8498,76.16 -21.95872,0 -43.91745,0 -65.87617,0 -0.45689,-35.6 -0.91378,-71.2 -1.37067,-106.8 z m 303.35662,73.6 c -3.24966,-25.80156 -5.35817,-50.77548 26.69756,-41.68 24.46931,0 48.93861,0 73.40792,0 0,-23.36 0,-46.72 0,-70.08 -34.77338,0 -69.54677,0 -104.32015,0 0,-25.28 0,-50.56 0,-75.84 92.90667,0 185.81333,0 278.72,0 0,23.750757 0,47.501513 0,71.25227 -34.66184,0.31258 -69.32577,0.46454 -103.98547,0.96312 0.68513,24.52157 1.77688,49.03025 2.68194,73.54461 33.76737,-0.31771 67.5343,-0.75706 101.30353,-0.80002 0,24.96 0,49.92 0,74.88 -91.37165,0 -182.74331,0 -274.11496,0 -0.13012,-10.74666 -0.26025,-21.49332 -0.39037,-32.23998 z M 281.92,253.31918 c 0.017,-1.52147 1.6698,0.1939 0,0 z m -35.49474,-89.34585 c 0.46191,-0.85224 0.14261,1.37967 0,0 z m 0.049,-3.33333 c 0.25735,-2.00268 0.25735,2.00268 0,0 z m 38.77536,-88.08 c -2.32301,-2.455151 2.78673,2.322299 0,0 z"
         id="path8" />
      <path
         style="fill:#fdf9f9"
         d="m 204.1,193.7014 c 1.40271,-0.45833 0.13869,0.61608 0,0 z m 108.88526,-31.96807 c 0.46191,-0.85224 0.14261,1.37967 0,0 z M 203.44,129.38807 c 1.76218,-0.51937 0.31982,0.56006 0,0 z"
         id="path7" />
      <path
         style="fill:#fdf5f5"
         d="m 205.06,193.7014 c 1.40271,-0.45833 0.13869,0.61608 0,0 z m -0.34,-64.31333 c 1.76218,-0.51937 0.31982,0.56006 0,0 z"
         id="path6" />
      <path
         style="fill:#fceded"
         d="m 206.66,129.3814 c 1.40271,-0.45833 0.13869,0.61608 0,0 z"
         id="path5" />
      <path
         style="fill:#fce9e9"
         d="m 207.62,129.3814 c 1.40271,-0.45833 0.13869,0.61608 0,0 z"
         id="path4" />
      <path
         style="fill:#fbe5e5"
         d="m 313.01053,158.08 c 0.28003,-1.44237 0.28003,1.44237 0,0 z M 208.58,129.3814 c 1.40271,-0.45833 0.13869,0.61608 0,0 z"
         id="path3" />
      <path
         style="fill:#e41818"
         d="m 142.96,271.53903 c -33.46667,-0.53342 -66.933333,-1.06685 -100.4,-1.60027 0,-72.59292 0,-145.18584 0,-217.77876 69.35415,0.477055 138.91848,-1.147322 208.10824,1.119416 55.85456,14.082346 67.23057,80.813594 60.82143,129.760584 -2.24265,44.51128 -35.46241,96.88093 -85.75888,89.73546 -27.59126,-0.34049 -55.18084,-0.80572 -82.77079,-1.23643 z m 78.46063,-78.5232 c 36.87672,-2.62368 32.92791,-68.58999 -5.4392,-63.37707 -35.51123,-0.43469 -71.02782,-0.23681 -106.54143,-0.37794 0,21.56008 0,43.12015 0,64.68023 37.29603,-0.56118 74.79922,0.79524 111.98063,-0.92522 z"
         id="path2" />
    </g>
  </g>
</svg>
