<?xml version="1.0" encoding="UTF-8" standalone="no"?>
<!-- Created with Inkscape (http://www.inkscape.org/) -->

<svg
   version="1.1"
   id="svg1"
   width="879.36005"
   height="860.79999"
   viewBox="0 0 879.36005 860.79999"
   xmlns="http://www.w3.org/2000/svg"
   xmlns:svg="http://www.w3.org/2000/svg">
  <defs
     id="defs1" />
  <g
     id="g1"
     transform="translate(-43.749592,-42.552864)">
    <g
       id="g2"
       transform="translate(1.1895925,-8.3271371)">
      <path
         style="fill:#fefefe"
         d="M 100.36983,799.26464 C 70.334422,737.43619 45.76,686.74819 45.76,686.62464 45.76,686.50109 61.935246,686.4 81.704992,686.4 h 35.944988 l 35.65501,71.80093 c 19.61026,39.4905 35.73782,71.75357 35.83904,71.6957 0.10121,-0.0579 15.06508,-32.80028 33.25305,-72.76092 L 255.4661,684.48 h 35.30695 c 19.41882,0 35.30695,0.10599 35.30695,0.23553 0,0.12954 -23.20839,51.24954 -51.57421,113.6 L 222.93158,911.68 H 188.95562 154.97965 Z M 637.44,881.64048 V 852.56097 L 717.76306,802.04048 798.08611,751.52 717.76306,751.43937 637.44,751.35875 V 718.23937 685.12 h 142.24 142.24 v 33.88578 33.88579 l -73.59983,47.31421 -73.59984,47.31422 73.59984,0.0807 73.59983,0.0807 V 879.20068 910.72 H 779.68 637.44 Z m -304,27.26723 c 0,-0.11676 25.72507,-49.58076 57.16683,-109.92 L 447.77366,689.28 h 39.89631 39.89632 l 43.25994,109.68 c 23.79297,60.324 43.25855,109.788 43.25686,109.92 -0.002,0.132 -15.96426,0.24 -35.47235,0.24 h -35.46926 l -14.18643,-30.16 c -7.80253,-16.588 -14.30266,-30.2941 -14.44473,-30.458 -0.15931,-0.18377 -15.13266,-0.0693 -39.0659,0.29868 l -38.80758,0.59666 -13.411,29.86133 -13.411,29.86133 h -38.18742 c -21.00308,0 -38.18742,-0.0955 -38.18742,-0.21229 z M 490.50667,788.22206 c -0.82754,-2.00113 -11.37118,-21.3941 -11.5416,-21.2285 -0.22094,0.21471 -9.84507,21.09844 -9.84507,21.36318 0,0.0678 4.836,0.12326 10.74667,0.12326 5.91066,0 10.69866,-0.11607 10.64,-0.25794 z M 703.04,596.16507 c -14.00311,-0.97918 -27.2584,-6.12448 -36.40368,-14.13079 -8.15274,-7.13737 -13.6771,-17.22209 -16.36498,-29.87428 -1.51553,-7.13382 -1.47134,-5.03849 -1.47134,-69.76 0,-57.46238 0.0342,-61.28277 0.57181,-63.84 3.48947,-16.59872 13.89941,-28.7309 32.76745,-38.18856 9.71443,-4.86938 21.14378,-8.31801 33.22074,-10.02385 3.93281,-0.5555 7.94354,-0.58759 73.44,-0.58759 65.02842,0 69.51565,0.0353 73.12,0.57494 18.66441,2.79449 31.22865,8.49598 41.15814,18.67704 6.40406,6.5663 10.93062,14.48289 13.41858,23.46802 2.01844,7.28951 1.90328,2.80708 1.90328,74.08 0,70.17294 0.0673,67.16819 -1.63344,72.90311 -5.14922,17.36304 -21.81819,31.07029 -43.32656,35.62836 l -4.16,0.88159 -79.04,0.0185 c -43.472,0.0102 -80.048,0.1113 -81.28,0.22467 -1.232,0.11337 -3.896,0.0903 -5.92,-0.0512 z m 119.68,-65.18299 c 9.36917,-1.86088 17.5079,-8.67378 19.27091,-16.13158 0.32298,-1.36623 0.37521,-7.96138 0.24812,-31.3305 l -0.16097,-29.6 -1.067,-2.79367 c -3.53028,-9.24311 -11.01528,-14.6087 -23.14078,-16.58838 -3.25991,-0.53223 -55.01152,-0.80483 -62.14328,-0.32734 -8.29588,0.55544 -13.22632,1.83911 -19.97566,5.20079 -8.22236,4.09536 -11.20345,8.52454 -11.91792,17.70713 -0.38714,4.97554 -0.38479,44.03159 0.003,51.52147 0.45848,8.85318 1.76818,12.79198 5.49583,16.52819 2.11892,2.12377 6.33413,4.35284 10.34766,5.47199 2.55936,0.71366 2.5689,0.71388 38.4,0.89195 38.78544,0.19276 41.03996,0.16498 44.64,-0.55005 z M 346.29805,487.76 c -0.75387,-58.74 -1.36333,-108.348 -1.35436,-110.24 l 0.0163,-3.44 h 33.76 33.76 v 37.12 37.12 h 69.92 69.92 V 411.2 374.08 h 30.08 30.08 v 110.24 110.24 h -29.2071 -29.2071 l -1.90714,-38.08 -1.90715,-38.08 h -68.7782 -68.77821 l 0.21202,19.12 c 0.11661,10.516 0.30781,27.652 0.4249,38.08 l 0.21288,18.96 H 380.6068 347.66872 Z M 45.818521,487.15929 C 45.064299,428.22168 44.454586,378.452 44.463604,376.56 l 0.0164,-3.44 h 31.514622 31.514614 l 66.64538,60.28784 66.64538,60.28785 0.0913,-2.28785 c 0.0503,-1.25831 -0.56175,-25.97625 -1.36,-54.92875 -0.79824,-28.9525 -1.45135,-54.08671 -1.45135,-55.8538 v -3.2129 l 31.28,-0.55739 c 17.204,-0.30656 32.57835,-0.55235 34.16523,-0.54619 l 2.88524,0.0112 1.37054,105.52 c 0.7538,58.036 1.36344,107.068 1.35477,108.96 l -0.0158,3.44 h -34.54017 -34.54017 l -63.13983,-64.72524 c -62.3868,-63.9533 -63.14118,-64.71182 -63.25314,-63.6 -0.0623,0.61888 0.51049,29.59243 1.27291,64.38566 0.76242,34.79323 1.31741,63.32535 1.23331,63.40469 -0.0841,0.0793 -15.6352,0.24985 -34.557989,0.37888 l -34.405083,0.2346 z M 343.41805,164.88 C 342.66418,106.14 342.05472,56.532 342.06369,54.64 L 342.08,51.2 h 33.76 33.76 v 37.12 37.12 h 69.92 69.92 V 88.32 51.2 h 30.08 30.08 v 110.24 110.24 h -29.2071 -29.2071 l -1.90714,-38.08 -1.90715,-38.08 H 478.5933 409.81509 l 0.21202,19.12 c 0.11661,10.516 0.30781,27.652 0.4249,38.08 l 0.21288,18.96 H 377.7268 344.78872 Z m 303.35662,73.6 c -0.21471,-17.732 -0.38684,-34.364 -0.38252,-36.96 l 0.008,-4.72 h 50.24 50.24 V 161.76 126.72 H 694.72 642.56 V 88.8 50.88 h 139.36 139.36 v 35.626137 35.626133 l -51.92,0.41713 c -28.556,0.22942 -51.98546,0.47511 -52.06547,0.54599 -0.08,0.0709 0.4907,16.64742 1.26824,36.83674 l 1.4137,36.70787 36.81176,-0.36802 c 20.24648,-0.20242 43.03977,-0.38242 50.65177,-0.4 l 13.84,-0.032 v 37.44 37.44 H 784.22252 647.16504 Z M 281.92,253.31918 c 0,-0.0664 0.252,-0.31845 0.56,-0.56 0.50754,-0.39804 0.51886,-0.38672 0.12082,0.12082 -0.41804,0.53304 -0.68082,0.70255 -0.68082,0.43918 z m -35.49474,-89.34585 c 0.0154,-0.37278 0.0912,-0.4486 0.19334,-0.19333 0.0924,0.231 0.0811,0.507 -0.0253,0.61333 -0.10633,0.10634 -0.18196,-0.0827 -0.16807,-0.42 z m 0.049,-3.33333 c 0,-0.616 0.0659,-0.868 0.14634,-0.56 0.0805,0.308 0.0805,0.812 0,1.12 -0.0805,0.308 -0.14634,0.056 -0.14634,-0.56 z m 38.77536,-88.08 -0.6096,-0.72 0.72,0.609596 c 0.396,0.335278 0.72,0.659278 0.72,0.72 0,0.256081 -0.25753,0.06703 -0.8304,-0.609596 z"
         id="path8" />
      <path
         style="fill:#fdf9f9"
         d="m 204.1,193.7014 c 0.231,-0.0924 0.507,-0.0811 0.61333,0.0253 0.10634,0.10633 -0.0827,0.18196 -0.42,0.16807 -0.37278,-0.0154 -0.4486,-0.0912 -0.19333,-0.19334 z m 108.88526,-31.96807 c 0.0154,-0.37278 0.0912,-0.4486 0.19334,-0.19333 0.0924,0.231 0.0811,0.507 -0.0253,0.61333 -0.10633,0.10634 -0.18196,-0.0827 -0.16807,-0.42 z M 203.44,129.38807 c 0.22,-0.0888 0.58,-0.0888 0.8,0 0.22,0.0888 0.04,0.1614 -0.4,0.1614 -0.44,0 -0.62,-0.0726 -0.4,-0.1614 z"
         id="path7" />
      <path
         style="fill:#fdf5f5"
         d="m 205.06,193.7014 c 0.231,-0.0924 0.507,-0.0811 0.61333,0.0253 0.10634,0.10633 -0.0827,0.18196 -0.42,0.16807 -0.37278,-0.0154 -0.4486,-0.0912 -0.19333,-0.19334 z m -0.34,-64.31333 c 0.22,-0.0888 0.58,-0.0888 0.8,0 0.22,0.0888 0.04,0.1614 -0.4,0.1614 -0.44,0 -0.62,-0.0726 -0.4,-0.1614 z"
         id="path6" />
      <path
         style="fill:#fceded"
         d="m 206.66,129.3814 c 0.231,-0.0924 0.507,-0.0811 0.61333,0.0253 0.10634,0.10633 -0.0827,0.18196 -0.42,0.16807 -0.37278,-0.0154 -0.4486,-0.0912 -0.19333,-0.19334 z"
         id="path5" />
      <path
         style="fill:#fce9e9"
         d="m 207.62,129.3814 c 0.231,-0.0924 0.507,-0.0811 0.61333,0.0253 0.10634,0.10633 -0.0827,0.18196 -0.42,0.16807 -0.37278,-0.0154 -0.4486,-0.0912 -0.19333,-0.19334 z"
         id="path4" />
      <path
         style="fill:#fbe5e5"
         d="m 313.01053,158.08 c 0,-0.44 0.0726,-0.62 0.1614,-0.4 0.0888,0.22 0.0888,0.58 0,0.8 -0.0888,0.22 -0.1614,0.04 -0.1614,-0.4 z M 208.58,129.3814 c 0.231,-0.0924 0.507,-0.0811 0.61333,0.0253 0.10634,0.10633 -0.0827,0.18196 -0.42,0.16807 -0.37278,-0.0154 -0.4486,-0.0912 -0.19333,-0.19334 z"
         id="path3" />
      <path
         style="fill:#e41818"
         d="M 142.96,271.53903 42.56,269.93876 V 161.04938 52.16 h 102.08434 c 62.27572,0 102.30103,0.115979 102.64,0.297413 0.30561,0.163577 1.82837,0.533478 3.3839,0.822003 6.54571,1.214117 15.70285,5.166977 22.49491,9.710362 21.03533,14.0711 34.05386,38.316912 38.17111,71.090222 1.87384,14.91575 1.93211,33.27217 0.15541,48.96 -4.20904,37.16484 -18.80014,64.85396 -42.11972,79.92939 -7.43249,4.8049 -16.28053,8.4579 -23.60995,9.74761 -2.0487,0.36049 -17.09586,0.18807 -102.8,-1.17797 z m 78.46063,-78.5232 c 9.04402,-1.74139 13.65926,-3.97142 18.06291,-8.72776 2.78926,-3.01267 4.94978,-7.3209 6.30771,-12.57805 l 0.98413,-3.80998 -0.13067,-8.03002 c -0.12351,-7.58966 -0.17792,-8.18796 -0.99214,-10.91002 -2.93748,-9.82048 -8.29974,-15.14526 -17.87156,-17.74666 -6.75974,-1.83715 -3.5788,-1.74416 -63.38101,-1.85272 l -54.96,-0.0998 v 32.34012 32.34011 l 54.16,-0.11021 54.16,-0.1102 z"
         id="path2" />
    </g>
  </g>
</svg>
